####
#
# OBJ File Generated by Meshlab
#
####
# Object dof_rootd_Ba001_r.processed.obj
#
# Vertices: 159
# Faces: 53
#
####
mtllib ./dof_rootd_Ba001_r.processed.obj.mtl

vn 0.000000 1.000000 0.000000
v 0.158424 -0.495681 -0.427222 0.752941 0.752941 0.752941
vn 0.000000 1.000000 0.000000
v 0.137757 -0.495681 0.408100 0.752941 0.752941 0.752941
vn 0.000000 1.000000 0.000000
v 0.158424 -0.495681 0.408100 0.752941 0.752941 0.752941
vn 0.000000 1.000000 0.000000
v 0.137757 -0.495681 0.408100 0.752941 0.752941 0.752941
vn 0.000000 1.000000 0.000000
v 0.158424 -0.495681 -0.427222 0.752941 0.752941 0.752941
vn 0.000000 1.000000 0.000000
v 0.137757 -0.495681 -0.427222 0.752941 0.752941 0.752941
vn 0.000000 1.000000 0.000000
v 0.158424 -0.004349 -0.427222 0.752941 0.752941 0.752941
vn 0.000000 1.000000 0.000000
v 0.137757 -0.004349 0.408100 0.752941 0.752941 0.752941
vn 0.000000 1.000000 0.000000
v 0.158424 -0.004349 0.408100 0.752941 0.752941 0.752941
vn 0.000000 1.000000 0.000000
v 0.137757 -0.004349 0.408100 0.752941 0.752941 0.752941
vn 0.000000 1.000000 0.000000
v 0.158424 -0.004349 -0.427222 0.752941 0.752941 0.752941
vn 0.000000 1.000000 0.000000
v 0.140184 -0.004349 -0.427222 0.752941 0.752941 0.752941
vn 0.000000 1.000000 0.000000
v 0.137757 -0.004349 0.408100 0.752941 0.752941 0.752941
vn 0.000000 1.000000 0.000000
v 0.140184 -0.004349 -0.427222 0.752941 0.752941 0.752941
vn 0.000000 1.000000 0.000000
v 0.137757 -0.004349 -0.427222 0.752941 0.752941 0.752941
vn 0.000000 0.000000 1.000000
v 0.158425 -0.041723 0.408100 0.752941 0.752941 0.752941
vn 0.000000 0.000000 1.000000
v 0.137757 -0.495681 0.408100 0.752941 0.752941 0.752941
vn 0.000000 0.000000 1.000000
v 0.158424 -0.495681 0.408100 0.752941 0.752941 0.752941
vn 0.000000 0.000000 1.000000
v 0.137757 -0.495681 0.408100 0.752941 0.752941 0.752941
vn 0.000000 0.000000 1.000000
v 0.158425 -0.041723 0.408100 0.752941 0.752941 0.752941
vn 0.000000 0.000000 1.000000
v 0.137757 -0.004349 0.408100 0.752941 0.752941 0.752941
vn 0.000000 0.000000 1.000000
v 0.137757 -0.004349 0.408100 0.752941 0.752941 0.752941
vn 0.000000 0.000000 1.000000
v 0.158425 -0.041723 0.408100 0.752941 0.752941 0.752941
vn 0.000000 0.000000 1.000000
v 0.158425 -0.029570 0.408100 0.752941 0.752941 0.752941
vn 0.000000 0.000000 1.000000
v 0.137757 -0.004349 0.408100 0.752941 0.752941 0.752941
vn 0.000000 0.000000 1.000000
v 0.158425 -0.029570 0.408100 0.752941 0.752941 0.752941
vn 0.000000 0.000000 1.000000
v 0.158424 -0.004349 0.408100 0.752941 0.752941 0.752941
vn -1.000000 0.000000 0.000000
v 0.137757 -0.495681 -0.427222 0.752941 0.752941 0.752941
vn -1.000000 0.000000 0.000000
v 0.137757 -0.004349 0.408100 0.752941 0.752941 0.752941
vn -1.000000 0.000000 0.000000
v 0.137757 -0.004349 -0.427222 0.752941 0.752941 0.752941
vn -1.000000 0.000000 0.000000
v 0.137757 -0.004349 0.408100 0.752941 0.752941 0.752941
vn -1.000000 0.000000 0.000000
v 0.137757 -0.495681 -0.427222 0.752941 0.752941 0.752941
vn -1.000000 0.000000 0.000000
v 0.137757 -0.495681 0.408100 0.752941 0.752941 0.752941
vn 0.000000 0.000000 -1.000000
v 0.158424 -0.004349 -0.427222 0.752941 0.752941 0.752941
vn 0.000000 0.000000 -1.000000
v 0.158413 -0.029570 -0.427222 0.752941 0.752941 0.752941
vn 0.000000 0.000000 -1.000000
v 0.140184 -0.004349 -0.427222 0.752941 0.752941 0.752941
vn 0.000000 0.000000 -1.000000
v 0.137757 -0.004349 -0.427222 0.752941 0.752941 0.752941
vn 0.000000 0.000000 -1.000000
v 0.158424 -0.495681 -0.427222 0.752941 0.752941 0.752941
vn 0.000000 0.000000 -1.000000
v 0.137757 -0.495681 -0.427222 0.752941 0.752941 0.752941
vn 0.000000 0.000000 -1.000000
v 0.158424 -0.495681 -0.427222 0.752941 0.752941 0.752941
vn 0.000000 0.000000 -1.000000
v 0.137757 -0.004349 -0.427222 0.752941 0.752941 0.752941
vn 0.000000 0.000000 -1.000000
v 0.158413 -0.041723 -0.427222 0.752941 0.752941 0.752941
vn 0.000000 0.000000 -1.000000
v 0.158413 -0.041723 -0.427222 0.752941 0.752941 0.752941
vn 0.000000 0.000000 -1.000000
v 0.137757 -0.004349 -0.427222 0.752941 0.752941 0.752941
vn 0.000000 0.000000 -1.000000
v 0.158413 -0.041120 -0.427222 0.752941 0.752941 0.752941
vn 0.000000 0.000000 -1.000000
v 0.158413 -0.041120 -0.427222 0.752941 0.752941 0.752941
vn 0.000000 0.000000 -1.000000
v 0.137757 -0.004349 -0.427222 0.752941 0.752941 0.752941
vn 0.000000 0.000000 -1.000000
v 0.158413 -0.029570 -0.427222 0.752941 0.752941 0.752941
vn 0.000000 0.000000 -1.000000
v 0.158413 -0.029570 -0.427222 0.752941 0.752941 0.752941
vn 0.000000 0.000000 -1.000000
v 0.137757 -0.004349 -0.427222 0.752941 0.752941 0.752941
vn 0.000000 0.000000 -1.000000
v 0.140184 -0.004349 -0.427222 0.752941 0.752941 0.752941
vn 1.000000 -0.000437 -0.000014
v 0.158424 -0.004349 -0.427222 0.752941 0.752941 0.752941
vn 1.000000 -0.000437 -0.000014
v 0.158425 -0.029570 0.408100 0.752941 0.752941 0.752941
vn 1.000000 -0.000437 -0.000014
v 0.158413 -0.029570 -0.427222 0.752941 0.752941 0.752941
vn 1.000000 0.000040 0.000000
v 0.158425 -0.029570 0.408100 0.752941 0.752941 0.752941
vn 1.000000 0.000040 0.000000
v 0.158424 -0.004349 -0.427222 0.752941 0.752941 0.752941
vn 1.000000 0.000040 0.000000
v 0.158424 -0.004349 0.408100 0.752941 0.752941 0.752941
vn 1.000000 0.000024 -0.000014
v 0.158425 -0.041723 0.408100 0.752941 0.752941 0.752941
vn 1.000000 0.000024 -0.000014
v 0.158424 -0.495681 -0.427222 0.752941 0.752941 0.752941
vn 1.000000 0.000024 -0.000014
v 0.158413 -0.041723 -0.427222 0.752941 0.752941 0.752941
vn 1.000000 -0.000002 0.000000
v 0.158424 -0.495681 -0.427222 0.752941 0.752941 0.752941
vn 1.000000 -0.000002 0.000000
v 0.158425 -0.041723 0.408100 0.752941 0.752941 0.752941
vn 1.000000 -0.000002 0.000000
v 0.158424 -0.495681 0.408100 0.752941 0.752941 0.752941
vn 0.000000 1.000000 0.000000
v 0.175796 -0.029570 -0.427222 0.752941 0.752941 0.752941
vn 0.000000 1.000000 0.000000
v 0.158425 -0.029570 0.408100 0.752941 0.752941 0.752941
vn 0.000000 1.000000 0.000000
v 0.175807 -0.029570 0.408100 0.752941 0.752941 0.752941
vn 0.000000 1.000000 0.000000
v 0.158425 -0.029570 0.408100 0.752941 0.752941 0.752941
vn 0.000000 1.000000 0.000000
v 0.175796 -0.029570 -0.427222 0.752941 0.752941 0.752941
vn 0.000000 1.000000 0.000000
v 0.158413 -0.029570 -0.427222 0.752941 0.752941 0.752941
vn 1.000000 0.000000 -0.000014
v 0.158425 -0.029570 0.408100 0.752941 0.752941 0.752941
vn 1.000000 0.000000 -0.000014
v 0.158413 -0.041120 -0.427222 0.752941 0.752941 0.752941
vn 1.000000 0.000000 -0.000014
v 0.158413 -0.029570 -0.427222 0.752941 0.752941 0.752941
vn 1.000000 0.000000 -0.000014
v 0.158413 -0.041120 -0.427222 0.752941 0.752941 0.752941
vn 1.000000 0.000000 -0.000014
v 0.158425 -0.029570 0.408100 0.752941 0.752941 0.752941
vn 1.000000 0.000000 -0.000014
v 0.158413 -0.041723 -0.427222 0.752941 0.752941 0.752941
vn 1.000000 0.000000 -0.000014
v 0.158413 -0.041723 -0.427222 0.752941 0.752941 0.752941
vn 1.000000 0.000000 -0.000014
v 0.158425 -0.029570 0.408100 0.752941 0.752941 0.752941
vn 1.000000 0.000000 -0.000014
v 0.158425 -0.041723 0.408100 0.752941 0.752941 0.752941
vn 0.000000 0.000000 -1.000000
v 0.158413 -0.029570 -0.427222 0.752941 0.752941 0.752941
vn 0.000000 0.000000 -1.000000
v 0.175796 -0.029570 -0.427222 0.752941 0.752941 0.752941
vn 0.000000 0.000000 -1.000000
v 0.158413 -0.041120 -0.427222 0.752941 0.752941 0.752941
vn 0.000000 0.000000 -1.000000
v 0.178788 -0.041723 -0.427223 0.752941 0.752941 0.752941
vn 0.000000 0.000000 -1.000000
v 0.184904 -0.046682 -0.427223 0.752941 0.752941 0.752941
vn 0.000000 0.000000 -1.000000
v 0.182087 -0.047437 -0.427223 0.752941 0.752941 0.752941
vn 0.000000 0.000000 -1.000000
v 0.184904 -0.046682 -0.427223 0.752941 0.752941 0.752941
vn 0.000000 0.000000 -1.000000
v 0.178788 -0.041723 -0.427223 0.752941 0.752941 0.752941
vn 0.000000 0.000000 -1.000000
v 0.178614 -0.023203 -0.427223 0.752941 0.752941 0.752941
vn -0.000342 -0.000003 -1.000000
v 0.178614 -0.023203 -0.427223 0.752941 0.752941 0.752941
vn -0.000342 -0.000003 -1.000000
v 0.178788 -0.041723 -0.427223 0.752941 0.752941 0.752941
vn -0.000342 -0.000003 -1.000000
v 0.175796 -0.029570 -0.427222 0.752941 0.752941 0.752941
vn -0.000048 0.000069 -1.000000
v 0.175796 -0.029570 -0.427222 0.752941 0.752941 0.752941
vn -0.000048 0.000069 -1.000000
v 0.178788 -0.041723 -0.427223 0.752941 0.752941 0.752941
vn -0.000048 0.000069 -1.000000
v 0.158413 -0.041723 -0.427222 0.752941 0.752941 0.752941
vn 0.000000 0.000000 -1.000000
v 0.175796 -0.029570 -0.427222 0.752941 0.752941 0.752941
vn 0.000000 0.000000 -1.000000
v 0.158413 -0.041723 -0.427222 0.752941 0.752941 0.752941
vn 0.000000 0.000000 -1.000000
v 0.158413 -0.041120 -0.427222 0.752941 0.752941 0.752941
vn -0.000349 0.000000 -1.000000
v 0.178614 -0.023203 -0.427223 0.752941 0.752941 0.752941
vn -0.000349 0.000000 -1.000000
v 0.175796 -0.029570 -0.427222 0.752941 0.752941 0.752941
vn -0.000349 0.000000 -1.000000
v 0.175796 -0.023958 -0.427222 0.752941 0.752941 0.752941
vn -1.000000 0.000000 0.000013
v 0.175796 -0.029570 -0.427222 0.752941 0.752941 0.752941
vn -1.000000 0.000000 0.000013
v 0.175807 -0.023958 0.408100 0.752941 0.752941 0.752941
vn -1.000000 0.000000 0.000013
v 0.175796 -0.023958 -0.427222 0.752941 0.752941 0.752941
vn -1.000000 0.000000 0.000013
v 0.175807 -0.023958 0.408100 0.752941 0.752941 0.752941
vn -1.000000 0.000000 0.000013
v 0.175796 -0.029570 -0.427222 0.752941 0.752941 0.752941
vn -1.000000 0.000000 0.000013
v 0.175807 -0.029570 0.408100 0.752941 0.752941 0.752941
vn 0.000000 -1.000000 0.000000
v 0.158425 -0.041723 0.408100 0.752941 0.752941 0.752941
vn 0.000000 -1.000000 0.000000
v 0.178788 -0.041723 -0.427223 0.752941 0.752941 0.752941
vn 0.000000 -1.000000 0.000000
v 0.178799 -0.041723 0.408100 0.752941 0.752941 0.752941
vn 0.000000 -1.000000 0.000000
v 0.178788 -0.041723 -0.427223 0.752941 0.752941 0.752941
vn 0.000000 -1.000000 0.000000
v 0.158425 -0.041723 0.408100 0.752941 0.752941 0.752941
vn 0.000000 -1.000000 0.000000
v 0.158413 -0.041723 -0.427222 0.752941 0.752941 0.752941
vn 0.965939 0.258771 -0.000013
v 0.178614 -0.023203 -0.427223 0.752941 0.752941 0.752941
vn 0.965939 0.258771 -0.000013
v 0.184915 -0.046682 0.408100 0.752941 0.752941 0.752941
vn 0.965939 0.258771 -0.000013
v 0.184904 -0.046682 -0.427223 0.752941 0.752941 0.752941
vn 0.965938 0.258772 -0.000013
v 0.184915 -0.046682 0.408100 0.752941 0.752941 0.752941
vn 0.965938 0.258772 -0.000013
v 0.178614 -0.023203 -0.427223 0.752941 0.752941 0.752941
vn 0.965938 0.258772 -0.000013
v 0.178625 -0.023203 0.408100 0.752941 0.752941 0.752941
vn -0.866020 -0.500009 0.000011
v 0.182098 -0.047437 0.408100 0.752941 0.752941 0.752941
vn -0.866020 -0.500009 0.000011
v 0.178788 -0.041723 -0.427223 0.752941 0.752941 0.752941
vn -0.866020 -0.500009 0.000011
v 0.182087 -0.047437 -0.427223 0.752941 0.752941 0.752941
vn -0.866020 -0.500009 0.000011
v 0.178788 -0.041723 -0.427223 0.752941 0.752941 0.752941
vn -0.866020 -0.500009 0.000011
v 0.182098 -0.047437 0.408100 0.752941 0.752941 0.752941
vn -0.866020 -0.500009 0.000011
v 0.178799 -0.041723 0.408100 0.752941 0.752941 0.752941
vn 0.258878 -0.965910 -0.000003
v 0.182098 -0.047437 0.408100 0.752941 0.752941 0.752941
vn 0.258878 -0.965910 -0.000003
v 0.184904 -0.046682 -0.427223 0.752941 0.752941 0.752941
vn 0.258878 -0.965910 -0.000003
v 0.184915 -0.046682 0.408100 0.752941 0.752941 0.752941
vn 0.258879 -0.965910 -0.000003
v 0.184904 -0.046682 -0.427223 0.752941 0.752941 0.752941
vn 0.258879 -0.965910 -0.000003
v 0.182098 -0.047437 0.408100 0.752941 0.752941 0.752941
vn 0.258879 -0.965910 -0.000003
v 0.182087 -0.047437 -0.427223 0.752941 0.752941 0.752941
vn -0.258793 0.965933 0.000003
v 0.178614 -0.023203 -0.427223 0.752941 0.752941 0.752941
vn -0.258793 0.965933 0.000003
v 0.175807 -0.023958 0.408100 0.752941 0.752941 0.752941
vn -0.258793 0.965933 0.000003
v 0.178625 -0.023203 0.408100 0.752941 0.752941 0.752941
vn -0.258793 0.965933 0.000003
v 0.175807 -0.023958 0.408100 0.752941 0.752941 0.752941
vn -0.258793 0.965933 0.000003
v 0.178614 -0.023203 -0.427223 0.752941 0.752941 0.752941
vn -0.258793 0.965933 0.000003
v 0.175796 -0.023958 -0.427222 0.752941 0.752941 0.752941
vn 0.000000 0.000000 1.000000
v 0.184915 -0.046682 0.408100 0.752941 0.752941 0.752941
vn 0.000000 0.000000 1.000000
v 0.178799 -0.041723 0.408100 0.752941 0.752941 0.752941
vn 0.000000 0.000000 1.000000
v 0.182098 -0.047437 0.408100 0.752941 0.752941 0.752941
vn 0.000000 0.000000 1.000000
v 0.178799 -0.041723 0.408100 0.752941 0.752941 0.752941
vn 0.000000 0.000000 1.000000
v 0.184915 -0.046682 0.408100 0.752941 0.752941 0.752941
vn 0.000000 0.000000 1.000000
v 0.178625 -0.023203 0.408100 0.752941 0.752941 0.752941
vn 0.000000 0.000000 1.000000
v 0.178799 -0.041723 0.408100 0.752941 0.752941 0.752941
vn 0.000000 0.000000 1.000000
v 0.178625 -0.023203 0.408100 0.752941 0.752941 0.752941
vn 0.000000 0.000000 1.000000
v 0.175807 -0.029570 0.408100 0.752941 0.752941 0.752941
vn 0.000000 0.000000 1.000000
v 0.178799 -0.041723 0.408100 0.752941 0.752941 0.752941
vn 0.000000 0.000000 1.000000
v 0.175807 -0.029570 0.408100 0.752941 0.752941 0.752941
vn 0.000000 0.000000 1.000000
v 0.158425 -0.041723 0.408100 0.752941 0.752941 0.752941
vn 0.000000 0.000000 1.000000
v 0.175807 -0.029570 0.408100 0.752941 0.752941 0.752941
vn 0.000000 0.000000 1.000000
v 0.178625 -0.023203 0.408100 0.752941 0.752941 0.752941
vn 0.000000 0.000000 1.000000
v 0.175807 -0.023958 0.408100 0.752941 0.752941 0.752941
vn 0.000000 0.000000 1.000000
v 0.158425 -0.029570 0.408100 0.752941 0.752941 0.752941
vn 0.000000 0.000000 1.000000
v 0.158425 -0.041723 0.408100 0.752941 0.752941 0.752941
vn 0.000000 0.000000 1.000000
v 0.175807 -0.029570 0.408100 0.752941 0.752941 0.752941
vn 1.000000 0.000000 0.000000
v 0.158616 -0.341348 -0.395672 0.752941 0.752941 0.752941
vn 1.000000 0.000000 0.000000
v 0.158616 -0.470966 -0.402507 0.752941 0.752941 0.752941
vn 1.000000 0.000000 0.000000
v 0.158616 -0.341348 -0.402507 0.752941 0.752941 0.752941
vn 1.000000 0.000000 0.000000
v 0.158616 -0.470966 -0.402507 0.752941 0.752941 0.752941
vn 1.000000 0.000000 0.000000
v 0.158616 -0.341348 -0.395672 0.752941 0.752941 0.752941
vn 1.000000 0.000000 0.000000
v 0.158616 -0.470966 -0.395672 0.752941 0.752941 0.752941
# 159 vertices, 0 vertices normals


usemtl material_0
vt 0.124023 0.372642
vt 0.002358 0.250977
vt 0.124023 0.250977
f 1/1/1 2/2/2 3/3/3
vt 0.247642 0.250977
vt 0.125977 0.372642
vt 0.125977 0.250977
f 4/4/4 5/5/5 6/6/6
vt 0.122642 0.375977
vt 0.000977 0.497642
vt 0.000977 0.375977
f 7/7/7 8/8/8 9/9/9
vt 0.000977 0.252358
vt 0.122642 0.374023
vt 0.000977 0.374023
f 10/10/10 11/11/11 12/12/12
vt 0.377358 0.188477
vt 0.435142 0.188477
vt 0.406250 0.217369
f 13/13/13 14/14/14 15/15/15
vt 0.125977 0.497642
vt 0.125977 0.377358
vt 0.186119 0.437500
f 16/16/16 17/17/17 18/18/18
vt 0.127358 0.499023
vt 0.187500 0.438881
vt 0.247642 0.499023
f 19/19/19 20/20/20 21/21/21
vt 0.392983 0.233398
vt 0.405273 0.221108
vt 0.405273 0.233398
f 22/22/22 23/23/23 24/24/24
vt 0.407227 0.247642
vt 0.407227 0.221108
vt 0.420494 0.234375
f 25/25/25 26/26/26 27/27/27
vt 0.000977 0.502358
vt 0.497642 0.999023
vt 0.000977 0.999023
f 28/28/28 29/29/29 30/30/30
vt 0.499023 0.997642
vt 0.002358 0.500977
vt 0.499023 0.500977
f 31/31/31 32/32/32 33/33/33
vt 0.421875 0.235756
vt 0.435142 0.249023
vt 0.408608 0.249023
f 34/34/34 35/35/35 36/36/36
vt 0.122642 0.499023
vt 0.002358 0.499023
vt 0.062500 0.438881
f 37/37/37 38/38/38 39/39/39
vt 0.124023 0.377358
vt 0.124023 0.497642
vt 0.063881 0.437500
f 40/40/40 41/41/41 42/42/42
vt 0.420898 0.228920
vt 0.420898 0.232017
vt 0.419350 0.230469
f 43/43/43 44/44/44 45/45/45
vt 0.405273 0.247642
vt 0.392983 0.235352
vt 0.405273 0.235352
f 46/46/46 47/47/47 48/48/48
vt 0.432045 0.241211
vt 0.436523 0.236733
vt 0.436523 0.241211
f 49/49/49 50/50/50 51/51/51
vt 0.122642 0.125977
vt 0.000977 0.247642
vt 0.000977 0.125977
f 52/52/52 53/53/53 54/54/54
vt 0.000977 0.002358
vt 0.122642 0.124023
vt 0.000977 0.124023
f 55/55/55 56/56/56 57/57/57
vt 0.500977 0.502358
vt 0.997642 0.999023
vt 0.500977 0.999023
f 58/58/58 59/59/59 60/60/60
vt 0.999023 0.997642
vt 0.502358 0.500977
vt 0.999023 0.500977
f 61/61/61 62/62/62 63/63/63
vt 0.125977 0.127358
vt 0.247642 0.249023
vt 0.125977 0.249023
f 64/64/64 65/65/65 66/66/66
vt 0.002358 0.249023
vt 0.124023 0.127358
vt 0.124023 0.249023
f 67/67/67 68/68/68 69/69/69
vt 0.247642 0.374023
vt 0.127358 0.374023
vt 0.187500 0.313881
f 70/70/70 71/71/71 72/72/72
vt 0.390625 0.235756
vt 0.403892 0.249023
vt 0.377358 0.249023
f 73/73/73 74/74/74 75/75/75
vt 0.249023 0.252358
vt 0.249023 0.372642
vt 0.188881 0.312500
f 76/76/76 77/77/77 78/78/78
vt 0.422852 0.217773
vt 0.422852 0.205483
vt 0.435142 0.217773
f 79/79/79 80/80/80 81/81/81
vt 0.432045 0.235352
vt 0.435142 0.235352
vt 0.433594 0.236900
f 82/82/82 83/83/83 84/84/84
vt 0.424233 0.233398
vt 0.429688 0.227944
vt 0.435142 0.233398
f 85/85/85 86/86/86 87/87/87
vt 0.436523 0.247642
vt 0.432045 0.243164
vt 0.436523 0.243164
f 88/88/88 89/89/89 90/90/90
vt 0.420898 0.205483
vt 0.420898 0.217773
vt 0.408608 0.217773
f 91/91/91 92/92/92 93/93/93
vt 0.416420 0.227539
vt 0.419517 0.227539
vt 0.417969 0.229088
f 94/94/94 95/95/95 96/96/96
vt 0.430664 0.239830
vt 0.430664 0.236733
vt 0.432213 0.238281
f 97/97/97 98/98/98 99/99/99
vt 0.189858 0.436523
vt 0.249023 0.377358
vt 0.249023 0.436523
f 100/100/100 101/101/101 102/102/102
vt 0.249023 0.497642
vt 0.189858 0.438477
vt 0.249023 0.438477
f 103/103/103 104/104/104 105/105/105
vt 0.372642 0.375977
vt 0.250977 0.497642
vt 0.250977 0.375977
f 106/106/106 107/107/107 108/108/108
vt 0.250977 0.252358
vt 0.372642 0.374023
vt 0.250977 0.374023
f 109/109/109 110/110/110 111/111/111
vt 0.375977 0.377358
vt 0.497642 0.499023
vt 0.375977 0.499023
f 112/112/112 113/113/113 114/114/114
vt 0.252358 0.499023
vt 0.374023 0.377358
vt 0.374023 0.499023
f 115/115/115 116/116/116 117/117/117
vt 0.186523 0.435142
vt 0.127358 0.375977
vt 0.186523 0.375977
f 118/118/118 119/119/119 120/120/120
vt 0.247642 0.375977
vt 0.188477 0.435142
vt 0.188477 0.375977
f 121/121/121 122/122/122 123/123/123
vt 0.375977 0.247642
vt 0.375977 0.189858
vt 0.404869 0.218750
f 124/124/124 125/125/125 126/126/126
vt 0.375977 0.185142
vt 0.375977 0.127358
vt 0.404869 0.156250
f 127/127/127 128/128/128 129/129/129
vt 0.435142 0.186523
vt 0.377358 0.186523
vt 0.406250 0.157631
f 130/130/130 131/131/131 132/132/132
vt 0.438477 0.247642
vt 0.438477 0.189858
vt 0.467369 0.218750
f 133/133/133 134/134/134 135/135/135
vt 0.419517 0.225586
vt 0.416420 0.225586
vt 0.417969 0.224037
f 136/136/136 137/137/137 138/138/138
vt 0.431069 0.226562
vt 0.436523 0.221108
vt 0.436523 0.232017
f 139/139/139 140/140/140 141/141/141
vt 0.428711 0.239830
vt 0.424233 0.235352
vt 0.428711 0.235352
f 142/142/142 143/143/143 144/144/144
vt 0.436523 0.202148
vt 0.424233 0.202148
vt 0.436523 0.189858
f 145/145/145 146/146/146 147/147/147
vt 0.420898 0.221108
vt 0.420898 0.224205
vt 0.419350 0.222656
f 148/148/148 149/149/149 150/150/150
vt 0.436523 0.204102
vt 0.436523 0.216392
vt 0.424233 0.204102
f 151/151/151 152/152/152 153/153/153
vt 0.469727 0.221108
vt 0.497642 0.249023
vt 0.469727 0.249023
f 154/154/154 155/155/155 156/156/156
vt 0.439858 0.249023
vt 0.467773 0.221108
vt 0.467773 0.249023
f 157/157/157 158/158/158 159/159/159
# 53 faces, 159 coords texture

# End of File